HIERARCHY
ROOT Hips
{
  OFFSET 0 0 0
  CHANNELS 6 Xposition Yposition Zposition Zrotation Yrotation Xrotation
  JOINT LeftThigh
  {
    OFFSET 8.409438 0 -5.917753
    CHANNELS 3 Zrotation Yrotation Xrotation
    JOINT LeftLeg
    {
      OFFSET 0 0 -42.358652
      CHANNELS 3 Zrotation Yrotation Xrotation
      JOINT LeftFoot
      {
        OFFSET 0 0 -39.357303
        CHANNELS 3 Zrotation Yrotation Xrotation
      }
    }
  }
  JOINT RightThigh
  {
    OFFSET -8.409438 0 -5.917753
    CHANNELS 3 Zrotation Yrotation Xrotation
    JOINT RightLeg
    {
      OFFSET 0 0 -42.358652
      CHANNELS 3 Zrotation Yrotation Xrotation
      JOINT RightFoot
      {
        OFFSET 0 0 -39.357303
        CHANNELS 3 Zrotation Yrotation Xrotation
      }
    }
  }
  JOINT SpineLow
  {
    OFFSET 0 0 4.719101
    CHANNELS 3 Zrotation Yrotation Xrotation
    JOINT SpineMid
    {
      OFFSET 0 0 12.899191
      CHANNELS 3 Zrotation Yrotation Xrotation
      JOINT Chest
      {
        OFFSET 0 0 12.899191
        CHANNELS 3 Zrotation Yrotation Xrotation
        JOINT LeftShoulder
        {
          OFFSET 7.550562 1.41573 9.438202
          CHANNELS 3 Zrotation Yrotation Xrotation
          JOINT LeftArm
          {
            OFFSET 9.155056 0 4.247191
            CHANNELS 3 Zrotation Yrotation Xrotation
            JOINT LeftForearm
            {
              OFFSET 0 0 25.771955
              CHANNELS 3 Zrotation Yrotation Xrotation
              JOINT LeftHand
              {
                OFFSET 0 0 25.197169
                CHANNELS 3 Zrotation Yrotation Xrotation
              }
            }
          }
        }
        JOINT RightShoulder
        {
          OFFSET -7.550562 1.41573 9.438202
          CHANNELS 3 Zrotation Yrotation Xrotation
          JOINT RightArm
          {
            OFFSET -9.155056 0 4.247191
            CHANNELS 3 Zrotation Yrotation Xrotation
            JOINT RightForearm
            {
              OFFSET 0 0 -25.771955
              CHANNELS 3 Zrotation Yrotation Xrotation
              JOINT RightHand
              {
                OFFSET 0 0 -25.197169
                CHANNELS 3 Zrotation Yrotation Xrotation
              }
            }
          }
        }
        JOINT Neck
        {
          OFFSET 0 0 15.101124
          CHANNELS 3 Zrotation Yrotation Xrotation
          JOINT Head
          {
            OFFSET 0 0 11.325843
            CHANNELS 3 Zrotation Yrotation Xrotation
            End Site
            {
              OFFSET 0 0 14.157303
            }
          }
        }
      }
    }
  }
}
MOTION
Frames: 17
Frame Time: 0.01
0.0  101.685394  0.0  -1.429361  13.133226  -104.587322  18.279229  -23.141077  9.235978  -9.009198  5.869586  15.354368  5.47409  1.933277  5.633841  -12.465237  15.002188  8.241894  -0.432673  1.238809  11.986882  1.841784  1.891813  -2.050466  -0.447088  0.033302  2.102549  -1.218118  0.129791  5.746273  -1.218118  0.129791  5.746274  -6.143749  23.529162  2.311246  99.465794  66.819628  176.994741  -39.602556  4.422761  82.508244  63.679116  -0.538396  1.297437  16.525227  -8.378122  19.695781  91.230797  73.515577  7.166837  -30.215628  -11.252916  -100.8317  75.774232  4.988725  16.508677  -3.106711  -2.098646  -0.021617  -2.329847  -1.573923  -0.026885  
0.0  101.685394  0.0  -1.495442  13.255023  -104.664811  18.572951  -23.415506  8.964633  -9.408813  6.132872  15.719002  5.437773  1.949604  5.608591  -12.763174  14.99425  8.060431  -0.240691  1.259766  12.467158  1.893601  1.980552  -2.065996  -0.460274  0.038262  2.112185  -1.253673  0.144663  5.772485  -1.253673  0.144663  5.772486  -6.135018  23.550719  2.348317  99.366433  66.828553  176.922478  -39.577439  4.438921  82.598245  63.838102  -0.344154  1.25882  16.559921  -8.349519  19.734512  91.146964  73.560203  7.065443  -30.244387  -11.191112  -100.848234  75.835976  4.439157  17.355503  -3.01844  -2.173134  -0.052252  -2.263744  -1.629639  -0.049924  
0.0  101.685394  0.0  -1.582507  13.425687  -104.723746  18.795936  -23.696966  8.598219  -9.891199  6.422983  16.063  5.595986  1.99774  5.713446  -13.548083  15.065866  7.627807  -0.10007  1.295871  13.025468  2.309475  2.116198  -2.042233  -0.473132  0.042225  2.122453  -1.288413  0.156808  5.800442  -1.288413  0.156808  5.800442  -6.086066  23.567952  2.393101  99.235062  66.833242  176.809062  -39.511473  4.555825  82.787823  63.832744  -0.069706  0.987086  16.487772  -8.308616  19.716526  91.233087  73.616829  7.098536  -30.286358  -11.188402  -100.842133  76.247574  3.537755  18.635299  -2.95946  -2.269075  -0.09774  -2.219668  -1.70138  -0.084291  
0.0  101.685394  0.0  -1.65965  13.582892  -104.786872  19.168816  -24.019206  8.247358  -10.31815  6.72704  16.51283  5.507446  2.037494  5.671642  -13.907382  15.03015  7.340432  0.106548  1.335246  13.680651  2.374249  2.242655  -2.068176  -0.490193  0.046942  2.134028  -1.334557  0.171419  5.831936  -1.334557  0.171419  5.831936  -6.094397  23.601729  2.403113  99.08569  66.864416  176.687967  -39.521442  4.756932  82.906744  63.829269  0.200371  0.486845  16.528648  -8.247294  19.736628  91.183257  73.682219  6.934859  -30.334505  -11.105594  -100.746817  76.350004  2.560006  19.965806  -2.869464  -2.364995  -0.151879  -2.15238  -1.77308  -0.125006  
0.0  101.685394  0.0  -1.748834  13.813367  -104.816581  19.128071  -24.21562  7.616844  -10.55032  7.065929  17.2434  5.552203  2.100503  5.712704  -14.612785  15.076973  6.821277  0.209816  1.361725  14.419078  2.581694  2.398876  -2.048612  -0.514055  0.053834  2.143322  -1.399084  0.192538  5.857123  -1.399084  0.192538  5.857123  -6.094819  23.615856  2.414665  98.918812  66.909235  176.582973  -39.59163  5.188241  83.035566  64.060749  0.541201  -0.204897  16.517291  -8.19385  19.702396  91.289323  73.744699  6.880556  -30.385948  -11.094743  -100.646649  77.226138  1.080403  22.037244  -2.796285  -2.470687  -0.217401  -2.097768  -1.852067  -0.17434  
0.0  101.685394  0.0  -1.837203  14.018913  -104.861663  19.435419  -24.540801  7.170071  -10.977045  7.417426  17.882887  5.432384  2.178694  5.6041  -14.936175  15.07012  6.412138  0.441953  1.316825  15.24317  2.543161  2.576418  -2.015575  -0.536981  0.058979  2.155902  -1.461194  0.208895  5.891318  -1.461194  0.208895  5.891318  -6.129231  23.664052  2.419301  98.7322  66.987595  176.435728  -39.70008  5.77621  83.150417  64.627675  0.936452  -0.988466  16.57138  -8.103921  19.693196  91.339215  73.813946  6.753853  -30.453274  -11.141054  -100.500076  76.815372  -0.188009  23.520994  -2.712859  -2.587384  -0.294341  -2.035545  -1.939277  -0.232217  
0.0  101.685394  0.0  -1.924436  14.401108  -104.838471  19.421979  -24.764316  6.568103  -11.462754  7.831  18.529754  5.406921  2.308177  5.594812  -15.649395  15.111582  5.767546  0.683855  1.29265  16.145771  2.593077  2.773881  -1.950191  -0.570776  0.071291  2.161296  -1.552367  0.245653  5.905649  -1.552367  0.245653  5.90565  -6.324684  23.670001  2.404355  98.686269  67.078071  176.396675  -39.832198  6.327044  83.23072  65.581238  1.474511  -1.662633  16.500924  -8.021432  19.636545  91.618231  73.820362  6.82249  -30.587736  -11.234694  -100.392485  74.468969  -0.652506  23.792872  -2.705276  -2.711009  -0.384884  -2.030287  -2.031602  -0.300624  
0.0  101.685394  0.0  -2.048299  14.672015  -104.871519  19.504768  -25.055816  6.007589  -11.66268  8.228841  19.45889  5.195179  2.391857  5.424238  -15.825277  14.997975  5.29301  0.825021  1.277445  17.133891  2.499093  2.970814  -1.894748  -0.595696  0.079549  2.169155  -1.619649  0.270618  5.926826  -1.619649  0.270618  5.926825  -6.403917  23.687795  2.478957  98.657805  67.20631  176.386328  -39.97365  6.767788  83.33284  66.42917  2.072349  -2.215117  16.52505  -7.945695  19.655091  91.609409  73.857799  6.698327  -30.536127  -11.57633  -100.505734  74.399168  -1.894963  24.347964  -2.667153  -2.870143  -0.465522  -2.002135  -2.150626  -0.361611  
0.0  101.685394  0.0  -2.157513  15.038358  -104.850604  19.341963  -25.240672  5.348572  -11.858508  8.667812  20.456654  4.992551  2.485977  5.232334  -17.098054  15.098994  4.211612  0.991483  1.263402  18.259714  3.194454  3.329472  -1.705471  -0.636007  0.092486  2.170734  -1.728567  0.309596  5.93062  -1.728567  0.309596  5.93062  -6.672996  23.665395  2.45423  98.975561  67.317881  176.591839  -40.111818  7.032928  83.451826  67.112191  2.755887  -2.61946  16.53411  -7.857044  19.676193  91.206972  73.944502  6.049833  -30.335089  -12.354135  -100.779451  74.729546  -3.35054  24.041624  -2.663654  -3.011931  -0.563101  -2.00006  -2.256548  -0.435377  
0.0  101.685394  0.0  -2.303069  15.234071  -104.892784  19.255298  -25.463748  4.698871  -11.811052  9.046044  21.708798  4.653786  2.602552  4.979183  -16.821675  14.918554  3.717907  0.960339  1.187108  19.476364  2.951157  3.571022  -1.662696  -0.66009  0.094551  2.178614  -1.794106  0.317606  5.951974  -1.794106  0.317606  5.951974  -6.704788  23.698369  2.618923  99.242894  67.533994  176.844372  -40.157629  7.187133  83.662104  67.511003  3.454767  -2.900478  16.60464  -7.756837  19.740038  89.984192  74.152528  4.664936  -29.877084  -13.400996  -101.131995  75.438462  -5.000482  23.297934  -2.624119  -3.169593  -0.663558  -1.971034  -2.374401  -0.511174  
0.0  101.685394  0.0  -2.442181  15.496911  -104.896143  18.43441  -25.336935  3.674778  -11.17211  9.290702  23.525974  4.558276  2.792448  4.911056  -17.641869  14.936672  2.581273  0.654553  1.195715  20.805203  3.762671  3.982686  -1.415513  -0.691947  0.101222  2.180356  -1.880497  0.338739  5.956374  -1.880497  0.338739  5.956374  -6.908492  23.684712  2.759765  99.757895  67.77826  177.274657  -40.234948  7.278311  83.92485  67.759287  4.238128  -3.184675  16.672779  -7.696765  19.795822  88.415281  74.476288  3.117837  -29.251  -14.486167  -101.481034  75.717954  -6.368883  22.532417  -2.634851  -3.301543  -0.781605  -1.979821  -2.472848  -0.600303  
0.0  101.685394  0.0  -2.62587  15.608648  -104.917292  18.301643  -25.521615  2.90147  -10.961056  9.542729  24.996717  4.241909  3.003962  4.625975  -16.841754  14.622532  1.976223  0.279329  1.1292  22.293121  3.524211  4.286604  -1.323285  -0.697918  0.097664  2.181099  -1.897117  0.32958  5.958471  -1.897117  0.32958  5.958472  -7.046294  23.640562  2.962455  100.417884  68.034174  177.852548  -40.286346  7.644526  84.304188  68.099141  5.124823  -3.572652  16.673224  -7.653981  19.840694  87.284316  74.738091  1.888565  -28.7353  -15.236348  -101.663659  76.10209  -7.329513  22.259373  -2.646603  -3.450334  -0.897833  -1.989431  -2.583928  -0.688144  
0.0  101.685394  0.0  -2.795411  15.703254  -104.852791  18.126137  -25.636525  2.046295  -10.731636  9.796108  26.510225  4.154288  3.223078  4.398356  -15.897521  14.274875  1.199066  -0.496359  1.086773  23.838938  3.485796  4.662354  -1.166408  -0.714031  0.093114  2.16757  -1.941603  0.318212  5.921534  -1.941603  0.318212  5.921535  -7.261496  23.629589  3.179222  101.074647  68.340886  178.379623  -40.452307  8.265006  84.662361  68.501113  6.071807  -4.012074  16.764534  -7.632018  19.877793  86.385126  75.140052  1.207106  -28.216304  -16.040689  -101.972861  76.276065  -7.809888  22.15564  -2.70417  -3.52306  -1.034172  -2.033463  -2.637791  -0.791009  
0.0  101.685394  0.0  -2.982921  15.659519  -104.750655  18.230298  -25.722017  1.224074  -10.688207  9.933342  27.786606  4.11691  3.409431  4.219737  -14.872987  13.792384  0.26766  -0.754926  0.985526  25.572601  3.08267  5.04034  -1.04461  -0.719935  0.071254  2.150971  -1.959756  0.258559  5.876772  -1.959756  0.258559  5.876772  -7.361395  23.681946  3.405008  101.778717  68.65808  178.926229  -40.557799  9.177266  85.127728  68.742818  6.999727  -4.491887  16.832334  -7.574411  19.833051  86.649087  75.330664  1.247932  -28.077104  -16.444584  -101.98358  76.403503  -7.986705  21.931927  -2.65623  -3.594406  -1.176584  -1.998455  -2.690765  -0.897809  
0.0  101.685394  0.0  -3.113452  15.597126  -104.596272  18.252115  -25.42989  0.5879  -10.506062  9.69738  28.961418  4.149441  3.567341  4.067438  -14.034856  13.283339  -0.87542  -0.57018  0.83398  27.457479  2.50498  5.381782  -0.962783  -0.739805  0.061846  2.137761  -2.01491  0.234231  5.840857  -2.014911  0.234231  5.840857  -7.633777  23.660214  3.529457  101.582694  69.124164  178.910291  -41.12172  10.019531  85.228043  68.771274  7.817954  -5.061104  17.043128  -7.603968  19.696433  87.986782  75.474247  2.187359  -28.091425  -16.907978  -101.963134  76.497682  -7.968319  21.555893  -2.66297  -3.579316  -1.381697  -2.004691  -2.678546  -1.051574  
0.0  101.685394  0.0  -3.257971  15.320977  -104.447357  18.723432  -25.347091  0.100507  -10.766246  9.547126  29.64016  4.317777  3.699122  3.977486  -13.235395  12.730316  -2.183313  -0.399939  0.685408  29.372401  1.99812  5.7737  -0.858676  -0.733422  0.03251  2.15316  -2.000021  0.154028  5.883849  -2.000021  0.154028  5.883848  -7.834218  23.641777  3.516202  102.338661  69.643946  179.310299  -41.191877  11.47678  85.817896  68.574207  8.569938  -5.67842  17.143965  -7.610148  19.331627  90.049258  75.643592  3.844968  -28.298929  -17.368209  -101.764473  76.523506  -7.817337  21.038814  -2.521401  -3.589361  -1.679112  -1.900321  -2.685175  -1.273772  
0.0  101.685394  0.0  -3.342101  14.738535  -104.300454  19.503576  -25.456389  -0.325547  -11.147594  9.503755  30.138297  4.576396  3.83611  3.928213  -12.574885  12.283137  -3.643568  0.085393  0.347492  31.235039  2.743034  6.384666  -0.481629  -0.747611  0.053761  2.184624  -2.036756  0.214285  5.969152  -2.036756  0.214285  5.969152  -7.783021  23.258067  3.376585  103.339363  70.167685  179.734183  -41.224099  13.2496  86.511503  68.162001  9.339512  -6.405747  18.846733  -8.202065  19.226165  91.548521  76.323077  5.880213  -28.696193  -17.758752  -101.392206  76.268628  -7.595485  20.405496  -2.127042  -3.713744  -2.025477  -1.607067  -2.778338  -1.531538  
